# xmcd
#
# Track frame offsets:
#	150
#	5372
#	23534
#	44792
#	61789
#	79981
#	100050
#	119633
#	123597
#	144524
#	164350
#	181519
#	200402
#	219193
#
# Disc length: 3127 seconds
#
# Revision: 0
# Processed by: cddbd v1.5.1PL2 Copyright (c) Steve Scherf et al.
# Submitted via: EasyCDDAExtractor 8.1.2.3
#
DISCID=b80c350e
DTITLE=Dontcha - Les bords du fleuve
DYEAR=1998
DGENRE=Rap
TTITLE0=Intro
TTITLE1=Plus de Cash
TTITLE2=Esprit
TTITLE3=Fétiche
TTITLE4=Confession
TTITLE5=Liens de Sang
TTITLE6=Qui a le Buzz
TTITLE7=Interlude
TTITLE8=Rappel Dontcha
TTITLE9=Bordes du Fleuve
TTITLE10=Schizophréne
TTITLE11=Réalité
TTITLE12=Autonome
TTITLE13=Ne Te Prends Pas Pour Lui
EXTD=
EXTT0=
EXTT1=
EXTT2=
EXTT3=
EXTT4=
EXTT5=
EXTT6=
EXTT7=
EXTT8=
EXTT9=
EXTT10=
EXTT11=
EXTT12=
EXTT13=
PLAYORDER=
